<svg width="261" height="42" viewBox="0 0 261 42" fill="none" xmlns="http://www.w3.org/2000/svg">
<g clip-path="url(#clip0_385_168)">
<g filter="url(#filter0_d_385_168)">
<path d="M3.78516 32.623C4.54666 32.6231 5.18888 32.761 5.71191 33.0371C6.23916 33.3133 6.64681 33.6943 6.93555 34.1797C7.22847 34.6651 7.40431 35.2176 7.46289 35.8369H5.58008C5.55916 35.4687 5.48589 35.1566 5.36035 34.9014C5.23481 34.6419 5.04432 34.4471 4.78906 34.3174C4.53805 34.1836 4.2034 34.1162 3.78516 34.1162C3.47145 34.1162 3.19716 34.1749 2.96289 34.292C2.72856 34.4092 2.53206 34.5877 2.37305 34.8262C2.21407 35.0646 2.09416 35.3656 2.01465 35.7295C1.93933 36.0894 1.90234 36.5126 1.90234 36.998V37.6445C1.90235 38.1173 1.93766 38.5337 2.00879 38.8936C2.0799 39.249 2.18862 39.5501 2.33496 39.7969C2.48554 40.0395 2.67792 40.2241 2.91211 40.3496C3.15063 40.471 3.43769 40.5312 3.77246 40.5312C4.16563 40.5312 4.48991 40.4692 4.74512 40.3438C5.00027 40.2183 5.1952 40.0319 5.3291 39.7852C5.46716 39.5383 5.54909 39.2304 5.57422 38.8623H7.45117C7.41349 39.4772 7.24353 40.0231 6.94238 40.5C6.64533 40.977 6.22884 41.3494 5.69336 41.6172C5.16192 41.885 4.5215 42.0195 3.77246 42.0195C3.18669 42.0195 2.66171 41.9186 2.19727 41.7178C1.73277 41.5127 1.33449 41.2197 1.00391 40.8389C0.677689 40.4582 0.429316 39.9976 0.257812 39.458C0.0862993 38.9183 1.83485e-05 38.3139 0 37.6445V37.0107C0 36.3412 0.087918 35.7361 0.263672 35.1963C0.443559 34.6525 0.698855 34.1903 1.0293 33.8096C1.36407 33.4288 1.76402 33.1357 2.22852 32.9307C2.69299 32.7256 3.21188 32.623 3.78516 32.623ZM22.4902 38.793C22.4902 39.2028 22.555 39.5375 22.6846 39.7969C22.8142 40.0562 23.0006 40.2468 23.2432 40.3682C23.4901 40.4895 23.7814 40.5508 24.1162 40.5508C24.4592 40.5508 24.7498 40.4895 24.9883 40.3682C25.231 40.2468 25.4155 40.0563 25.541 39.7969C25.6706 39.5375 25.7354 39.2028 25.7354 38.793V32.7549H27.6123V38.793C27.6123 39.496 27.4614 40.0881 27.1602 40.5693C26.8631 41.0505 26.451 41.4126 25.9238 41.6553C25.4008 41.8979 24.7982 42.0195 24.1162 42.0195C23.4342 42.0195 22.8273 41.8979 22.2959 41.6553C21.7686 41.4126 21.354 41.0506 21.0527 40.5693C20.7556 40.0881 20.6074 39.496 20.6074 38.793V32.7549H22.4902V38.793ZM34.7363 39.0879C34.7363 39.6987 34.6026 40.2238 34.335 40.6631C34.0671 41.0983 33.7008 41.4336 33.2363 41.668C32.776 41.9023 32.2571 42.0195 31.6797 42.0195C31.0813 42.0195 30.5521 41.9186 30.0918 41.7178C29.6315 41.5169 29.2695 41.2092 29.0059 40.7949C28.7423 40.3765 28.6104 39.8472 28.6104 39.207H30.5C30.5 39.5418 30.5456 39.8082 30.6377 40.0049C30.7339 40.2014 30.8703 40.3412 31.0459 40.4248C31.2216 40.5085 31.4328 40.5508 31.6797 40.5508C31.9181 40.5508 32.1251 40.4938 32.3008 40.3809C32.4765 40.2679 32.6127 40.1024 32.709 39.8848C32.8093 39.6672 32.8594 39.4016 32.8594 39.0879V32.7549H34.7363V39.0879ZM57.5283 32.6289C58.1057 32.6289 58.6307 32.7315 59.1035 32.9365C59.5806 33.1416 59.9908 33.439 60.334 33.8281C60.6812 34.2173 60.9494 34.688 61.1377 35.2402C61.3301 35.7883 61.4257 36.4117 61.4258 37.1104V37.5439C61.4258 38.2384 61.3318 38.8618 61.1436 39.4141C60.9552 39.9664 60.6898 40.438 60.3467 40.8271C60.0036 41.2121 59.5932 41.5069 59.1162 41.7119C58.6435 41.9169 58.1183 42.0195 57.541 42.0195C56.9677 42.0195 56.4419 41.917 55.9648 41.7119C55.492 41.5069 55.0817 41.2121 54.7344 40.8271C54.3871 40.438 54.1173 39.9664 53.9248 39.4141C53.7366 38.8618 53.6426 38.2384 53.6426 37.5439V37.1104C53.6426 36.4117 53.7365 35.7883 53.9248 35.2402C54.1131 34.6879 54.3795 34.2173 54.7227 33.8281C55.0699 33.4391 55.4794 33.1415 55.9521 32.9365C56.4292 32.7315 56.955 32.6289 57.5283 32.6289ZM92.1768 38.793C92.1768 39.2029 92.2415 39.5375 92.3711 39.7969C92.5008 40.0562 92.6871 40.2468 92.9297 40.3682C93.1766 40.4895 93.468 40.5508 93.8027 40.5508C94.1457 40.5507 94.4364 40.4895 94.6748 40.3682C94.9175 40.2468 95.102 40.0563 95.2275 39.7969C95.3571 39.5375 95.4219 39.2028 95.4219 38.793V32.7549H97.2988V38.793C97.2988 39.496 97.148 40.0881 96.8467 40.5693C96.5496 41.0505 96.1375 41.4126 95.6104 41.6553C95.0874 41.8979 94.4847 42.0195 93.8027 42.0195C93.1208 42.0195 92.5138 41.8979 91.9824 41.6553C91.4552 41.4126 91.0405 41.0506 90.7393 40.5693C90.4422 40.0881 90.2939 39.496 90.2939 38.793V32.7549H92.1768V38.793ZM129.486 32.6289C130.064 32.6289 130.59 32.7315 131.062 32.9365C131.539 33.1415 131.949 33.4391 132.292 33.8281C132.639 34.2173 132.907 34.6879 133.096 35.2402C133.288 35.7883 133.385 36.4117 133.385 37.1104V37.5439C133.385 38.2384 133.291 38.8618 133.103 39.4141C132.914 39.9664 132.648 40.438 132.305 40.8271C131.962 41.2118 131.552 41.5069 131.075 41.7119C130.602 41.917 130.077 42.0195 129.499 42.0195C128.926 42.0195 128.401 41.9169 127.924 41.7119C127.451 41.5069 127.041 41.212 126.693 40.8271C126.346 40.438 126.076 39.9664 125.884 39.4141C125.696 38.8618 125.602 38.2384 125.602 37.5439V37.1104C125.602 36.4117 125.696 35.7883 125.884 35.2402C126.072 34.688 126.338 34.2172 126.681 33.8281C127.028 33.439 127.438 33.1416 127.911 32.9365C128.388 32.7315 128.913 32.6289 129.486 32.6289ZM144.891 32.6289C145.468 32.629 145.993 32.7315 146.466 32.9365C146.943 33.1416 147.353 33.439 147.696 33.8281C148.043 34.2172 148.311 34.688 148.499 35.2402C148.691 35.7883 148.788 36.4117 148.788 37.1104V37.5439C148.788 38.2384 148.694 38.8618 148.506 39.4141C148.318 39.9664 148.052 40.438 147.709 40.8271C147.366 41.2121 146.955 41.5069 146.479 41.7119C146.006 41.917 145.48 42.0195 144.902 42.0195C144.329 42.0195 143.804 41.9169 143.327 41.7119C142.854 41.5069 142.444 41.2121 142.097 40.8271C141.749 40.438 141.48 39.9664 141.287 39.4141C141.099 38.8618 141.005 38.2384 141.005 37.5439V37.1104C141.005 36.4117 141.099 35.7883 141.287 35.2402C141.475 34.688 141.741 34.2172 142.084 33.8281C142.431 33.439 142.842 33.1416 143.314 32.9365C143.791 32.7315 144.317 32.6289 144.891 32.6289ZM153.753 32.623C154.548 32.623 155.201 32.7523 155.712 33.0117C156.222 33.267 156.611 33.623 156.879 34.0791C157.151 34.531 157.318 35.0499 157.381 35.6357H155.555C155.509 35.3261 155.421 35.0563 155.291 34.8262C155.161 34.596 154.975 34.4159 154.732 34.2861C154.494 34.1564 154.184 34.0918 153.804 34.0918C153.49 34.0918 153.209 34.1564 152.962 34.2861C152.719 34.4116 152.515 34.5981 152.348 34.8447C152.18 35.0916 152.052 35.3977 151.964 35.7617C151.876 36.1257 151.832 36.5483 151.832 37.0293V37.6133C151.832 38.0902 151.879 38.5127 151.971 38.8809C152.063 39.2449 152.199 39.5526 152.379 39.8037C152.563 40.0505 152.789 40.2368 153.057 40.3623C153.324 40.4878 153.637 40.5508 153.992 40.5508C154.289 40.5508 154.536 40.5258 154.732 40.4756C154.933 40.4254 155.094 40.3641 155.216 40.293C155.341 40.2177 155.438 40.147 155.505 40.0801V38.46H153.784V37.1172H157.388V40.7393C157.245 40.9108 157.026 41.0971 156.729 41.2979C156.431 41.4944 156.049 41.6634 155.58 41.8057C155.111 41.9479 154.544 42.0195 153.879 42.0195C153.289 42.0195 152.751 41.923 152.266 41.7305C151.78 41.5338 151.361 41.2477 151.01 40.8711C150.662 40.4945 150.395 40.0333 150.207 39.4893C150.019 38.9412 149.924 38.316 149.924 37.6133V37.042C149.924 36.339 150.014 35.7132 150.194 35.165C150.378 34.6169 150.64 34.154 150.979 33.7773C151.317 33.4008 151.722 33.1146 152.19 32.918C152.659 32.7213 153.18 32.6231 153.753 32.623ZM162.516 32.6289C163.093 32.6289 163.619 32.7315 164.092 32.9365C164.569 33.1416 164.978 33.4391 165.321 33.8281C165.669 34.2173 165.937 34.6879 166.125 35.2402C166.317 35.7883 166.414 36.4117 166.414 37.1104V37.5439C166.414 38.2385 166.319 38.8618 166.131 39.4141C165.943 39.9664 165.677 40.438 165.334 40.8271C164.991 41.212 164.58 41.5069 164.104 41.7119C163.631 41.9169 163.106 42.0195 162.528 42.0195C161.955 42.0195 161.43 41.9169 160.953 41.7119C160.48 41.5069 160.07 41.212 159.723 40.8271C159.375 40.438 159.106 39.9664 158.913 39.4141C158.725 38.8618 158.631 38.2385 158.631 37.5439V37.1104C158.631 36.4117 158.725 35.7883 158.913 35.2402C159.101 34.688 159.367 34.2172 159.71 33.8281C160.057 33.439 160.468 33.1416 160.94 32.9365C161.417 32.7315 161.942 32.6289 162.516 32.6289ZM174.58 32.6289C175.157 32.6289 175.682 32.7316 176.155 32.9365C176.632 33.1416 177.043 33.439 177.386 33.8281C177.733 34.2173 178.001 34.6879 178.189 35.2402C178.382 35.7883 178.478 36.4117 178.479 37.1104V37.5439C178.479 38.2385 178.384 38.8618 178.195 39.4141C178.007 39.9664 177.742 40.438 177.398 40.8271C177.055 41.212 176.645 41.5069 176.168 41.7119C175.695 41.9169 175.17 42.0195 174.593 42.0195C174.02 42.0195 173.495 41.9168 173.018 41.7119C172.545 41.5069 172.134 41.212 171.787 40.8271C171.44 40.438 171.17 39.9664 170.978 39.4141C170.789 38.8618 170.694 38.2385 170.694 37.5439V37.1104C170.694 36.4117 170.789 35.7883 170.978 35.2402C171.166 34.6879 171.431 34.2173 171.774 33.8281C172.122 33.439 172.532 33.1416 173.005 32.9365C173.482 32.7316 174.007 32.6289 174.58 32.6289ZM199.098 32.6289C199.675 32.6289 200.2 32.7316 200.673 32.9365C201.15 33.1416 201.56 33.439 201.903 33.8281C202.251 34.2173 202.519 34.6879 202.707 35.2402C202.899 35.7883 202.996 36.4117 202.996 37.1104V37.5439C202.996 38.2385 202.901 38.8618 202.713 39.4141C202.525 39.9664 202.259 40.438 201.916 40.8271C201.573 41.212 201.162 41.5069 200.686 41.7119C200.213 41.9169 199.688 42.0195 199.11 42.0195C198.537 42.0195 198.012 41.9168 197.535 41.7119C197.062 41.5069 196.652 41.212 196.305 40.8271C195.957 40.438 195.688 39.9664 195.495 39.4141C195.307 38.8618 195.212 38.2385 195.212 37.5439V37.1104C195.212 36.4117 195.307 35.7883 195.495 35.2402C195.683 34.688 195.949 34.2173 196.292 33.8281C196.639 33.439 197.05 33.1416 197.522 32.9365C197.999 32.7316 198.524 32.6289 199.098 32.6289ZM235.278 32.6289C235.952 32.629 236.54 32.7505 237.042 32.9932C237.544 33.2358 237.933 33.5687 238.209 33.9912C238.489 34.4139 238.63 34.8974 238.63 35.4414H236.759C236.759 35.1737 236.703 34.9391 236.59 34.7383C236.481 34.5333 236.314 34.372 236.088 34.2549C235.866 34.1377 235.585 34.0791 235.246 34.0791C234.92 34.0791 234.648 34.1292 234.431 34.2295C234.213 34.3257 234.049 34.4576 233.94 34.625C233.832 34.7882 233.777 34.9727 233.777 35.1777C233.777 35.3323 233.815 35.4723 233.891 35.5977C233.97 35.7231 234.087 35.8405 234.242 35.9492C234.397 36.058 234.588 36.1606 234.813 36.2568C235.039 36.3531 235.301 36.448 235.598 36.54C236.096 36.6907 236.534 36.8595 236.91 37.0479C237.291 37.2361 237.609 37.4473 237.864 37.6816C238.12 37.916 238.312 38.1824 238.441 38.4795C238.571 38.7764 238.636 39.1129 238.636 39.4893C238.636 39.8867 238.559 40.2429 238.404 40.5566C238.25 40.8704 238.025 41.136 237.732 41.3535C237.439 41.5711 237.09 41.7366 236.684 41.8496C236.278 41.9625 235.824 42.0195 235.322 42.0195C234.87 42.0195 234.424 41.9609 233.984 41.8438C233.545 41.7224 233.146 41.5404 232.786 41.2979C232.43 41.0551 232.146 40.7448 231.933 40.3682C231.719 39.9916 231.612 39.5459 231.612 39.0312H233.502C233.502 39.3157 233.546 39.5563 233.634 39.7529C233.722 39.9496 233.845 40.1091 234.004 40.2305C234.167 40.3517 234.359 40.4398 234.581 40.4941C234.807 40.5485 235.054 40.5752 235.322 40.5752C235.648 40.5752 235.916 40.5295 236.125 40.4375C236.338 40.3455 236.495 40.2178 236.596 40.0547C236.7 39.8915 236.753 39.707 236.753 39.502C236.753 39.3389 236.728 39.1921 236.678 39.0625C236.632 38.9288 236.544 38.8079 236.414 38.6992C236.284 38.5863 236.102 38.475 235.868 38.3662C235.634 38.2574 235.33 38.1445 234.958 38.0273C234.544 37.8934 234.15 37.7426 233.777 37.5752C233.409 37.4079 233.083 37.2129 232.799 36.9912C232.518 36.7652 232.296 36.5041 232.133 36.207C231.974 35.9099 231.895 35.5642 231.895 35.1709C231.895 34.7903 231.978 34.4453 232.146 34.1357C232.313 33.8219 232.547 33.5538 232.849 33.332C233.15 33.1061 233.506 32.9329 233.916 32.8115C234.33 32.6902 234.785 32.6289 235.278 32.6289ZM10.6895 41.8936H8.8125V32.7549H10.6895V41.8936ZM15.8613 32.7549C16.5601 32.7549 17.161 32.8592 17.6631 33.0684C18.1694 33.2776 18.5591 33.587 18.8311 33.9971C19.103 34.4071 19.2392 34.9115 19.2393 35.5098C19.2393 35.9993 19.1547 36.42 18.9873 36.7715C18.8241 37.1188 18.5923 37.4102 18.291 37.6445C18.0856 37.8037 17.8541 37.9386 17.5986 38.0537L19.5781 41.8057V41.8936H17.5625L15.832 38.5107H14.3369V41.8936H12.4531V32.7549H15.8613ZM40.5801 32.7549L43.9951 41.8936H41.9863L41.3525 39.9668H38.0674L37.4355 41.8936H35.4336L38.8291 32.7549H40.5801ZM50.4033 38.8867V32.7549H52.2803V41.8936H50.3975L46.7256 35.7676V41.8936H44.8428V32.7549H46.7256L50.4033 38.8867ZM72.542 34.2295H69.7305V41.8936H67.8535V34.2295H65.085V32.7549H72.542V34.2295ZM77.0244 32.7549C77.7229 32.7549 78.3232 32.8593 78.8252 33.0684C79.3314 33.2776 79.7212 33.5871 79.9932 33.9971C80.2651 34.4071 80.4013 34.9115 80.4014 35.5098C80.4014 35.9992 80.3176 36.4201 80.1504 36.7715C79.9872 37.1188 79.7544 37.4102 79.4531 37.6445C79.2477 37.8037 79.0162 37.9386 78.7607 38.0537L80.7402 41.8057V41.8936H78.7256L76.9951 38.5107H75.499V41.8936H73.6162V32.7549H77.0244ZM86.2266 32.7549L89.6406 41.8936H87.6318L86.998 39.9668H83.7129L83.0811 41.8936H81.0791L84.4746 32.7549H86.2266ZM101.304 32.7549L103.65 39.4648L105.998 32.7549H108.459V41.8936H106.576V39.2949L106.763 35.0508L104.291 41.8936H103.011L100.538 35.0508L100.726 39.2949V41.8936H98.8486V32.7549H101.304ZM114.598 32.7549L118.013 41.8936H116.004L115.37 39.9668H112.085L111.453 41.8936H109.451L112.847 32.7549H114.598ZM124.979 34.2295H122.168V41.8936H120.291V34.2295H117.522V32.7549H124.979V34.2295ZM136.623 40.4248H140.615V41.8936H134.74V32.7549H136.623V40.4248ZM183.242 32.7549C183.941 32.7549 184.542 32.8591 185.044 33.0684C185.55 33.2775 185.939 33.5872 186.211 33.9971C186.483 34.4071 186.619 34.9115 186.619 35.5098C186.619 35.9992 186.535 36.42 186.368 36.7715C186.205 37.1188 185.972 37.4102 185.671 37.6445C185.465 37.8036 185.234 37.9386 184.979 38.0537L186.958 41.8057V41.8936H184.943L183.213 38.5107H181.717V41.8936H179.834V32.7549H183.242ZM194.591 34.2295H191.779V41.8936H189.902V34.2295H187.134V32.7549H194.591V34.2295ZM207.91 32.7549C208.626 32.7549 209.239 32.8841 209.75 33.1436C210.264 33.3987 210.658 33.7524 210.93 34.2041C211.202 34.656 211.338 35.1733 211.338 35.7549C211.338 36.3448 211.202 36.8552 210.93 37.2861C210.658 37.717 210.265 38.0499 209.75 38.2842C209.239 38.5185 208.626 38.6357 207.91 38.6357H206.234V41.8936H204.352V32.7549H207.91ZM218.764 32.7549V34.2295H214.521V36.4766H218.136V37.9082H214.521V40.4248H218.77V41.8936H212.637V32.7549H218.764ZM222.692 32.7549C223.303 32.7549 223.862 32.8592 224.368 33.0684C224.879 33.2734 225.321 33.5682 225.693 33.9531C226.066 34.338 226.352 34.7985 226.553 35.334C226.758 35.8653 226.86 36.4577 226.86 37.1104V37.5439C226.86 38.1925 226.758 38.7847 226.553 39.3203C226.352 39.8558 226.066 40.3163 225.693 40.7012C225.325 41.082 224.883 41.3767 224.368 41.5859C223.858 41.7909 223.293 41.8936 222.674 41.8936H219.868V32.7549H222.692ZM230.231 41.8936H228.354V32.7549H230.231V41.8936ZM246.814 34.2295H244.003V41.8936H242.126V34.2295H239.357V32.7549H246.814V34.2295ZM251.585 32.7549L255 41.8936H252.991L252.357 39.9668H249.072L248.44 41.8936H246.438L249.834 32.7549H251.585ZM57.5283 34.1289C57.2103 34.1289 56.9276 34.1945 56.6807 34.3242C56.4381 34.4497 56.2311 34.6377 56.0596 34.8887C55.8923 35.1397 55.7646 35.4493 55.6768 35.8174C55.5889 36.1856 55.5449 36.6132 55.5449 37.0986V37.5439C55.5449 38.0251 55.5889 38.4518 55.6768 38.8242C55.7646 39.1925 55.8939 39.5045 56.0654 39.7598C56.237 40.0108 56.4465 40.2013 56.6934 40.3311C56.9402 40.4607 57.2231 40.5254 57.541 40.5254C57.8587 40.5253 58.141 40.4606 58.3877 40.3311C58.6346 40.2013 58.8424 40.0108 59.0098 39.7598C59.1771 39.5045 59.3047 39.1924 59.3926 38.8242C59.4804 38.4519 59.5244 38.0251 59.5244 37.5439V37.0986C59.5244 36.6132 59.4805 36.1856 59.3926 35.8174C59.3047 35.4492 59.1745 35.1397 59.0029 34.8887C58.8314 34.6377 58.6219 34.4497 58.375 34.3242C58.1282 34.1946 57.8462 34.1289 57.5283 34.1289ZM129.486 34.1289C129.168 34.129 128.886 34.1946 128.64 34.3242C128.397 34.4498 128.189 34.6376 128.018 34.8887C127.85 35.1397 127.723 35.4493 127.635 35.8174C127.547 36.1856 127.503 36.6132 127.503 37.0986V37.5439C127.503 38.0251 127.547 38.4518 127.635 38.8242C127.723 39.1925 127.853 39.5045 128.024 39.7598C128.196 40.0106 128.405 40.2014 128.651 40.3311C128.898 40.4608 129.181 40.5254 129.499 40.5254C129.817 40.5254 130.1 40.4608 130.347 40.3311C130.594 40.2014 130.8 40.0107 130.968 39.7598C131.135 39.5045 131.263 39.1925 131.351 38.8242C131.438 38.4518 131.482 38.0251 131.482 37.5439V37.0986C131.482 36.6132 131.438 36.1856 131.351 35.8174C131.263 35.4493 131.133 35.1397 130.962 34.8887C130.79 34.6376 130.581 34.4498 130.334 34.3242C130.087 34.1945 129.804 34.1289 129.486 34.1289ZM144.891 34.1289C144.573 34.1289 144.29 34.1945 144.043 34.3242C143.8 34.4497 143.593 34.6377 143.422 34.8887C143.255 35.1397 143.126 35.4492 143.038 35.8174C142.95 36.1856 142.906 36.6132 142.906 37.0986V37.5439C142.906 38.025 142.95 38.4519 143.038 38.8242C143.126 39.1925 143.256 39.5045 143.428 39.7598C143.599 40.0108 143.809 40.2013 144.056 40.3311C144.302 40.4606 144.585 40.5253 144.902 40.5254C145.22 40.5254 145.503 40.4607 145.75 40.3311C145.997 40.2014 146.204 40.0107 146.371 39.7598C146.538 39.5045 146.667 39.1925 146.755 38.8242C146.843 38.4519 146.887 38.025 146.887 37.5439V37.0986C146.887 36.6132 146.843 36.1856 146.755 35.8174C146.667 35.4492 146.537 35.1397 146.365 34.8887C146.194 34.6376 145.984 34.4497 145.737 34.3242C145.491 34.1946 145.208 34.129 144.891 34.1289ZM162.516 34.1289C162.198 34.1289 161.915 34.1945 161.668 34.3242C161.425 34.4498 161.218 34.6378 161.047 34.8887C160.88 35.1397 160.752 35.4493 160.664 35.8174C160.576 36.1856 160.532 36.6132 160.532 37.0986V37.5439C160.532 38.0251 160.576 38.4518 160.664 38.8242C160.752 39.1925 160.882 39.5045 161.054 39.7598C161.225 40.0106 161.434 40.2014 161.681 40.3311C161.928 40.4608 162.21 40.5254 162.528 40.5254C162.846 40.5254 163.129 40.4608 163.376 40.3311C163.623 40.2014 163.83 40.0107 163.997 39.7598C164.164 39.5045 164.292 39.1925 164.38 38.8242C164.468 38.4518 164.512 38.0251 164.512 37.5439V37.0986C164.512 36.6132 164.468 36.1856 164.38 35.8174C164.292 35.4493 164.163 35.1396 163.991 34.8887C163.82 34.6377 163.61 34.4498 163.363 34.3242C163.116 34.1945 162.834 34.1289 162.516 34.1289ZM174.58 34.1289C174.262 34.1289 173.979 34.1945 173.732 34.3242C173.49 34.4497 173.283 34.6378 173.111 34.8887C172.944 35.1397 172.816 35.4493 172.729 35.8174C172.641 36.1856 172.597 36.6132 172.597 37.0986V37.5439C172.597 38.0251 172.641 38.4518 172.729 38.8242C172.816 39.1924 172.946 39.5045 173.117 39.7598C173.289 40.0108 173.498 40.2013 173.745 40.3311C173.992 40.4608 174.275 40.5254 174.593 40.5254C174.911 40.5254 175.194 40.4608 175.44 40.3311C175.687 40.2013 175.894 40.0107 176.062 39.7598C176.229 39.5045 176.356 39.1925 176.444 38.8242C176.532 38.4518 176.576 38.0251 176.576 37.5439V37.0986C176.576 36.6132 176.532 36.1856 176.444 35.8174C176.356 35.4493 176.226 35.1397 176.055 34.8887C175.883 34.6379 175.674 34.4497 175.428 34.3242C175.181 34.1945 174.898 34.1289 174.58 34.1289ZM199.098 34.1289C198.78 34.1289 198.497 34.1945 198.25 34.3242C198.007 34.4497 197.8 34.6378 197.629 34.8887C197.462 35.1397 197.334 35.4493 197.246 35.8174C197.158 36.1856 197.114 36.6132 197.114 37.0986V37.5439C197.114 38.0251 197.158 38.4518 197.246 38.8242C197.334 39.1924 197.463 39.5045 197.635 39.7598C197.806 40.0108 198.016 40.2013 198.263 40.3311C198.51 40.4608 198.792 40.5254 199.11 40.5254C199.428 40.5254 199.711 40.4608 199.958 40.3311C200.205 40.2013 200.412 40.0107 200.579 39.7598C200.746 39.5045 200.874 39.1925 200.962 38.8242C201.05 38.4518 201.094 38.0251 201.094 37.5439V37.0986C201.094 36.6132 201.05 36.1856 200.962 35.8174C200.874 35.4494 200.745 35.1396 200.573 34.8887C200.402 34.6377 200.192 34.4498 199.945 34.3242C199.698 34.1945 199.416 34.1289 199.098 34.1289ZM221.751 40.4248H222.674C223.167 40.4248 223.584 40.3144 223.923 40.0928C224.262 39.8668 224.517 39.5375 224.688 39.1064C224.864 38.6755 224.952 38.1548 224.952 37.5439V37.0986C224.952 36.63 224.902 36.217 224.802 35.8613C224.706 35.5058 224.561 35.2065 224.368 34.9639C224.176 34.7213 223.939 34.5393 223.659 34.418C223.379 34.2925 223.056 34.2295 222.692 34.2295H221.751V40.4248ZM249.557 38.4922H251.872L250.713 34.9678L249.557 38.4922ZM112.569 38.4922H114.885L113.725 34.9668L112.569 38.4922ZM84.1973 38.4922H86.5137L85.3535 34.9668L84.1973 38.4922ZM38.5518 38.4922H40.8672L39.707 34.9668L38.5518 38.4922ZM206.234 37.167H207.91C208.27 37.167 208.563 37.1084 208.789 36.9912C209.015 36.8699 209.181 36.7027 209.285 36.4893C209.39 36.2759 209.442 36.0353 209.442 35.7676C209.442 35.4956 209.39 35.2422 209.285 35.0078C209.181 34.7736 209.015 34.5856 208.789 34.4434C208.563 34.3011 208.27 34.2295 207.91 34.2295H206.234V37.167ZM181.717 37.042H183.255C183.585 37.042 183.86 36.9834 184.077 36.8662C184.295 36.749 184.458 36.5852 184.566 36.376C184.679 36.1668 184.736 35.9245 184.736 35.6484C184.736 35.3555 184.682 35.1021 184.573 34.8887C184.464 34.6753 184.299 34.5124 184.077 34.3994C183.855 34.2864 183.577 34.2295 183.242 34.2295H181.717V37.042ZM75.499 37.042H77.0371C77.3675 37.0419 77.6419 36.9833 77.8594 36.8662C78.0769 36.7491 78.2399 36.5851 78.3486 36.376C78.4615 36.1669 78.5176 35.9244 78.5176 35.6484C78.5176 35.3555 78.4633 35.1021 78.3545 34.8887C78.2458 34.6755 78.0809 34.5124 77.8594 34.3994C77.6377 34.2865 77.3591 34.2295 77.0244 34.2295H75.499V37.042ZM14.3369 37.042H15.874C16.2044 37.042 16.4787 36.9833 16.6963 36.8662C16.9139 36.749 17.0777 36.5852 17.1865 36.376C17.2993 36.1669 17.3554 35.9244 17.3555 35.6484C17.3555 35.3555 17.3012 35.1021 17.1924 34.8887C17.0836 34.6753 16.918 34.5124 16.6963 34.3994C16.4745 34.2865 16.196 34.2295 15.8613 34.2295H14.3369V37.042ZM73.4775 12.9307C73.4775 14.1525 73.2094 15.2033 72.6738 16.082C72.1383 16.9521 71.4062 17.6213 70.4775 18.0898C69.557 18.5585 68.5191 18.7929 67.3643 18.793C66.1675 18.793 65.1081 18.5922 64.1875 18.1904C63.2671 17.7887 62.5428 17.1741 62.0156 16.3457C61.4884 15.5088 61.2256 14.4494 61.2256 13.1689H65.0039C65.0039 13.8385 65.0962 14.3703 65.2803 14.7637C65.4727 15.1568 65.7444 15.4371 66.0957 15.6045C66.4472 15.7719 66.8705 15.8555 67.3643 15.8555C67.8411 15.8554 68.2551 15.7424 68.6064 15.5166C68.9579 15.2907 69.2304 14.9604 69.4229 14.5254C69.6237 14.0902 69.7236 13.5583 69.7236 12.9307V0.263672H73.4775V12.9307ZM83.9102 0.0126953C85.0649 0.0127254 86.115 0.217946 87.0605 0.62793C88.0146 1.03799 88.8352 1.6319 89.5215 2.41016C90.2161 3.18849 90.7513 4.13061 91.1279 5.23535C91.5129 6.3317 91.7061 7.57894 91.7061 8.97656V9.84277C91.706 11.2318 91.5171 12.4784 91.1406 13.583C90.764 14.6877 90.2331 15.6299 89.5469 16.4082C88.8606 17.1782 88.04 17.7676 87.0859 18.1777C86.1402 18.5878 85.0895 18.793 83.9346 18.793C82.7882 18.7929 81.7381 18.5878 80.7842 18.1777C79.8385 17.7676 79.0179 17.1782 78.3232 16.4082C77.6286 15.6299 77.0891 14.6877 76.7041 13.583C76.3276 12.4785 76.1387 11.2318 76.1387 9.84277V8.97656C76.1387 7.57899 76.3275 6.33167 76.7041 5.23535C77.0807 4.13064 77.6116 3.18848 78.2979 2.41016C78.9925 1.63185 79.8131 1.03802 80.7588 0.62793C81.7129 0.217837 82.7636 0.0126953 83.9102 0.0126953ZM144.144 0C145.667 3.75329e-05 146.951 0.27677 147.997 0.829102C149.052 1.38144 149.868 2.14252 150.445 3.11328C151.031 4.08411 151.383 5.18909 151.5 6.42773H147.733C147.692 5.69135 147.545 5.0681 147.294 4.55762C147.043 4.03885 146.663 3.64909 146.152 3.38965C145.65 3.12187 144.98 2.98831 144.144 2.98828C143.516 2.98828 142.968 3.10554 142.499 3.33984C142.03 3.57417 141.636 3.92924 141.318 4.40625C141 4.88319 140.763 5.48597 140.604 6.21387C140.453 6.93358 140.377 7.77924 140.377 8.75V10.043C140.377 10.9885 140.449 11.8213 140.591 12.541C140.733 13.2524 140.95 13.8558 141.243 14.3496C141.544 14.8349 141.93 15.2031 142.398 15.4541C142.875 15.6967 143.449 15.8184 144.118 15.8184C144.905 15.8184 145.554 15.6925 146.064 15.4414C146.575 15.1904 146.964 14.8178 147.231 14.3242C147.508 13.8304 147.67 13.215 147.721 12.4785H151.475C151.399 13.7087 151.06 14.8009 150.458 15.7549C149.864 16.7089 149.031 17.4546 147.96 17.9902C146.897 18.5259 145.616 18.793 144.118 18.793C142.946 18.793 141.896 18.5922 140.967 18.1904C140.038 17.7804 139.243 17.1949 138.582 16.4336C137.929 15.672 137.431 14.7505 137.088 13.6709C136.745 12.5914 136.573 11.3819 136.573 10.043V8.77539C136.573 7.4364 136.749 6.22704 137.101 5.14746C137.46 4.05959 137.971 3.1346 138.632 2.37305C139.301 1.61145 140.101 1.02533 141.03 0.615234C141.959 0.20524 142.997 0 144.144 0ZM217.533 0.0126953C218.688 0.0127146 219.738 0.217958 220.684 0.62793C221.638 1.03798 222.458 1.63192 223.145 2.41016C223.839 3.18849 224.375 4.13061 224.752 5.23535C225.137 6.33163 225.329 7.57906 225.329 8.97656V9.84277C225.329 11.2318 225.14 12.4784 224.764 13.583C224.387 14.6877 223.856 15.6299 223.17 16.4082C222.484 17.1782 221.663 17.7676 220.709 18.1777C219.763 18.5878 218.713 18.7929 217.559 18.793C216.412 18.793 215.361 18.5878 214.407 18.1777C213.462 17.7676 212.641 17.1782 211.946 16.4082C211.252 15.6299 210.712 14.6877 210.327 13.583C209.951 12.4785 209.763 11.2318 209.763 9.84277V8.97656C209.763 7.579 209.951 6.33166 210.327 5.23535C210.704 4.13061 211.236 3.18849 211.922 2.41016C212.616 1.63206 213.436 1.03795 214.382 0.62793C215.336 0.217837 216.387 0.0126953 217.533 0.0126953ZM234.606 0.0126953C235.954 0.0127184 237.13 0.255819 238.134 0.741211C239.138 1.22662 239.916 1.89204 240.469 2.7373C241.029 3.58252 241.31 4.54886 241.31 5.63672H237.569C237.569 5.10113 237.456 4.63217 237.23 4.23047C237.013 3.8204 236.678 3.498 236.226 3.26367C235.782 3.02948 235.222 2.91314 234.544 2.91309C233.891 2.91309 233.346 3.01301 232.911 3.21387C232.476 3.40633 232.15 3.67023 231.933 4.00488C231.715 4.33124 231.605 4.69935 231.605 5.10938C231.605 5.41893 231.681 5.69918 231.832 5.9502C231.991 6.20127 232.225 6.43572 232.535 6.65332C232.845 6.87091 233.226 7.07607 233.678 7.26855C234.13 7.46097 234.652 7.64993 235.246 7.83398C236.242 8.13526 237.117 8.47399 237.87 8.85059C238.632 9.22714 239.268 9.64958 239.778 10.1182C240.289 10.5868 240.674 11.1187 240.934 11.7129C241.193 12.3071 241.322 12.9812 241.322 13.7344C241.322 14.5293 241.168 15.2406 240.858 15.8682C240.549 16.4959 240.1 17.0277 239.515 17.4629C238.929 17.898 238.23 18.2282 237.418 18.4541C236.606 18.68 235.698 18.793 234.694 18.793C233.791 18.793 232.899 18.6757 232.021 18.4414C231.142 18.1987 230.342 17.835 229.622 17.3496C228.911 16.8642 228.342 16.2444 227.915 15.4912C227.488 14.738 227.274 13.8467 227.274 12.8174H231.054C231.054 13.3865 231.142 13.8684 231.317 14.2617C231.493 14.6549 231.74 14.9732 232.058 15.2158C232.384 15.4585 232.769 15.6334 233.213 15.7422C233.665 15.851 234.159 15.9062 234.694 15.9062C235.347 15.9062 235.882 15.8139 236.301 15.6299C236.727 15.4458 237.041 15.1904 237.242 14.8643C237.451 14.5379 237.557 14.1689 237.557 13.7588C237.557 13.4326 237.506 13.1401 237.405 12.8809C237.313 12.6131 237.138 12.3699 236.879 12.1523C236.619 11.9264 236.255 11.7049 235.786 11.4873C235.317 11.2697 234.711 11.0429 233.966 10.8086C233.137 10.5408 232.35 10.24 231.605 9.90527C230.869 9.57053 230.216 9.18082 229.647 8.7373C229.087 8.2854 228.643 7.76213 228.316 7.16797C227.999 6.57386 227.84 5.88318 227.84 5.09668C227.84 4.3352 228.007 3.64463 228.342 3.02539C228.677 2.39776 229.146 1.86248 229.748 1.41895C230.351 0.967056 231.062 0.619657 231.882 0.376953C232.71 0.134245 233.619 0.0126953 234.606 0.0126953ZM28.3838 0.263672C29.6057 0.263672 30.7237 0.47314 31.7363 0.891602C32.7571 1.30163 33.64 1.89138 34.3848 2.66113C35.1296 3.4311 35.7028 4.35257 36.1045 5.42383C36.5145 6.48665 36.7197 7.67107 36.7197 8.97656V9.84277C36.7197 11.1398 36.5145 12.3244 36.1045 13.3955C35.7028 14.4666 35.1295 15.3874 34.3848 16.1572C33.6484 16.9186 32.7655 17.5084 31.7363 17.9268C30.7153 18.3368 29.5853 18.542 28.3467 18.542H22.7354V0.263672H28.3838ZM46.2734 0.263672C47.6709 0.263672 48.8717 0.473232 49.876 0.891602C50.8886 1.31005 51.6679 1.92887 52.2119 2.74902C52.7558 3.5691 53.0273 4.57783 53.0273 5.77441C53.0273 6.75345 52.8601 7.59491 52.5254 8.29785C52.199 8.99245 51.7344 9.57431 51.1318 10.043C50.7209 10.3613 50.2591 10.634 49.748 10.8643L53.7051 18.3662V18.542H49.6758L46.2139 11.7754H43.2227V18.542H39.457V0.263672H46.2734ZM98.1836 7.70801H105.54V0.263672H109.294V18.542H105.54V10.6455H98.1836V18.542H94.417V0.263672H98.1836V7.70801ZM123.693 12.5293V0.263672H127.446V18.542H123.681L116.337 6.29004V18.542H112.57V0.263672H116.337L123.693 12.5293ZM162.698 0.263672L169.527 18.542H165.51L164.242 14.6885H157.673L156.408 18.542H152.403L159.195 0.263672H162.698ZM176.131 0.263672L180.825 13.6836L185.521 0.263672H190.441V18.542H186.676V13.3447L187.05 4.85449L182.106 18.542H179.545L174.601 4.85742L174.976 13.3447V18.542H171.222V0.263672H176.131ZM200.861 0.263672C202.292 0.263672 203.519 0.5231 204.54 1.04199C205.569 1.55251 206.356 2.26023 206.9 3.16406C207.444 4.06783 207.716 5.10153 207.716 6.26465C207.716 7.44465 207.444 8.46613 206.9 9.32812C206.356 10.19 205.569 10.8546 204.54 11.3232C203.519 11.7919 202.292 12.0264 200.861 12.0264H197.51V18.542H193.743V0.263672H200.861ZM83.9102 3.0127C83.2741 3.0127 82.7086 3.1429 82.2148 3.40234C81.7296 3.65341 81.3157 4.0302 80.9727 4.53223C80.6379 5.03432 80.3818 5.65327 80.2061 6.38965C80.0303 7.12614 79.9434 7.98034 79.9434 8.95117V9.84277C79.9434 10.805 80.0303 11.6586 80.2061 12.4033C80.3818 13.1396 80.6414 13.763 80.9844 14.2734C81.3275 14.7756 81.7465 15.1566 82.2402 15.416C82.7339 15.6754 83.2987 15.8056 83.9346 15.8057C84.5706 15.8057 85.1361 15.6755 85.6299 15.416C86.1236 15.1566 86.5383 14.7755 86.873 14.2734C87.2077 13.763 87.463 13.1396 87.6387 12.4033C87.8144 11.6586 87.9023 10.805 87.9023 9.84277V8.95117C87.9023 7.98034 87.8144 7.12614 87.6387 6.38965C87.4629 5.65341 87.2034 5.03427 86.8604 4.53223C86.5172 4.03007 86.0983 3.65342 85.6045 3.40234C85.1108 3.14296 84.5461 3.01273 83.9102 3.0127ZM217.533 3.0127C216.897 3.0127 216.332 3.1429 215.838 3.40234C215.353 3.65342 214.939 4.0302 214.596 4.53223C214.261 5.03427 214.006 5.65336 213.83 6.38965C213.654 7.12614 213.566 7.98034 213.566 8.95117V9.84277C213.566 10.8051 213.654 11.6586 213.83 12.4033C214.006 13.1397 214.265 13.763 214.608 14.2734C214.951 14.7755 215.37 15.1566 215.863 15.416C216.357 15.6755 216.923 15.8057 217.559 15.8057C218.194 15.8056 218.759 15.6754 219.253 15.416C219.747 15.1566 220.161 14.7756 220.496 14.2734C220.831 13.763 221.086 13.1396 221.262 12.4033C221.437 11.6586 221.525 10.805 221.525 9.84277V8.95117C221.525 7.98034 221.437 7.12614 221.262 6.38965C221.086 5.6534 220.826 5.03427 220.483 4.53223C220.14 4.03007 219.721 3.65342 219.228 3.40234C218.734 3.14298 218.169 3.01272 217.533 3.0127ZM26.501 15.6045H28.3467C29.3341 15.6045 30.1669 15.3829 30.8447 14.9395C31.5226 14.4875 32.0328 13.8298 32.376 12.9678C32.7274 12.1059 32.9033 11.0644 32.9033 9.84277V8.95117C32.9033 8.01382 32.8034 7.18892 32.6025 6.47754C32.4101 5.76631 32.1212 5.16796 31.7363 4.68262C31.3513 4.1972 30.8781 3.83353 30.3174 3.59082C29.7566 3.33975 29.1119 3.21387 28.3838 3.21387H26.501V15.6045ZM158.641 11.7383H163.272L160.953 4.68848L158.641 11.7383ZM197.51 9.08887H200.861C201.581 9.08887 202.167 8.97164 202.619 8.7373C203.071 8.49466 203.401 8.16005 203.61 7.7334C203.82 7.30668 203.925 6.8255 203.925 6.29004C203.925 5.74604 203.82 5.23918 203.61 4.77051C203.401 4.30195 203.071 3.92513 202.619 3.64062C202.167 3.35607 201.581 3.21387 200.861 3.21387H197.51V9.08887ZM43.2227 8.83789H46.2988C46.9599 8.83786 47.5082 8.72064 47.9434 8.48633C48.3782 8.25211 48.7043 7.92592 48.9219 7.50781C49.1478 7.08935 49.2617 6.60315 49.2617 6.05078C49.2617 5.46506 49.1521 4.95898 48.9346 4.53223C48.717 4.10544 48.3869 3.7787 47.9434 3.55273C47.4998 3.32677 46.943 3.21387 46.2734 3.21387H43.2227V8.83789Z" fill="white"/>
</g>
</g>
<defs>
<filter id="filter0_d_385_168" x="-3.21378" y="0" width="261.428" height="48.4471" filterUnits="userSpaceOnUse" color-interpolation-filters="sRGB">
<feFlood flood-opacity="0" result="BackgroundImageFix"/>
<feColorMatrix in="SourceAlpha" type="matrix" values="0 0 0 0 0 0 0 0 0 0 0 0 0 0 0 0 0 0 127 0" result="hardAlpha"/>
<feOffset dy="3.21378"/>
<feGaussianBlur stdDeviation="1.60689"/>
<feComposite in2="hardAlpha" operator="out"/>
<feColorMatrix type="matrix" values="0 0 0 0 0 0 0 0 0 0 0 0 0 0 0 0 0 0 0.6 0"/>
<feBlend mode="normal" in2="BackgroundImageFix" result="effect1_dropShadow_385_168"/>
<feBlend mode="normal" in="SourceGraphic" in2="effect1_dropShadow_385_168" result="shape"/>
</filter>
<clipPath id="clip0_385_168">
<rect width="261" height="42" fill="white"/>
</clipPath>
</defs>
</svg>
