<svg width="18" height="18" viewBox="0 0 18 18" fill="none" xmlns="http://www.w3.org/2000/svg">
<path d="M7.74686 17.3757L6.55398 17.0503C5.17701 16.6747 2.36265 17.2354 1.01279 17.6991C-0.577696 18.2455 0.344991 17.0379 0.828101 15.427L0.888276 15.2264C1.3079 13.8273 1.3079 12.3358 0.888276 10.9366L0.802363 10.6502C0.332742 9.08431 0.38918 7.40772 0.963038 5.877C1.33771 4.87759 1.922 3.96997 2.67661 3.21514L3.57992 2.31158C5.05957 0.831522 7.06664 0 9.15947 0C11.1089 0 12.9893 0.721729 14.4381 2.02603L14.6982 2.26013C16.207 3.61847 17.1999 5.45667 17.5085 7.46327L17.5892 7.98797C17.8565 9.72573 17.5778 11.5036 16.7917 13.0763L16.6274 13.4049C15.6516 15.3572 13.8903 16.8013 11.7847 17.3757C10.4629 17.7363 9.06866 17.7363 7.74686 17.3757Z" fill="#0F1417"/>
</svg>
